ExploreSansVariable_ExtraThin Serif Italic.ufo
<glyph name="dollar" format="2">
  <advance width="576"/>
  <unicode hex="0024"/>
  <outline>
    <contour>
      <point x="376.491" y="864" type="line"/>
      <point x="411.491" y="864" type="line"/>
      <point x="198.509" y="-138" type="line"/>
      <point x="163.509" y="-138" type="line"/>
    </contour>
    <component base="S" xOffset="6.21256" yOffset="1"/>
  </outline>
</glyph>
<glyph name="percent" format="2">
  <advance width="736"/>
  <unicode hex="0025"/>
  <outline>
    <contour>
      <point x="634.245" y="708" type="line"/>
      <point x="666.245" y="708" type="line"/>
      <point x="98.7549" y="0" type="line"/>
      <point x="65.7549" y="0" type="line"/>
    </contour>
    <contour>
      <point x="502.31" y="299" type="curve" smooth="yes"/>
      <point x="582.31" y="299"/>
      <point x="620.28" y="233"/>
      <point x="601.575" y="145" type="curve" smooth="yes"/>
      <point x="582.658" y="56"/>
      <point x="517.055" y="-8"/>
      <point x="437.055" y="-8" type="curve" smooth="yes"/>
      <point x="357.055" y="-8"/>
      <point x="320.658" y="56"/>
      <point x="339.575" y="145" type="curve" smooth="yes"/>
      <point x="358.28" y="233"/>
      <point x="422.31" y="299"/>
    </contour>
    <contour>
      <point x="497.208" y="275" type="curve" smooth="yes"/>
      <point x="436.208" y="275"/>
      <point x="387.305" y="219"/>
      <point x="371.575" y="145" type="curve" smooth="yes"/>
      <point x="354.358" y="64"/>
      <point x="381.156" y="16"/>
      <point x="442.156" y="16" type="curve" smooth="yes"/>
      <point x="502.156" y="16"/>
      <point x="552.358" y="64"/>
      <point x="569.575" y="145" type="curve" smooth="yes"/>
      <point x="585.305" y="219"/>
      <point x="557.208" y="275"/>
    </contour>
    <contour>
      <point x="292.844" y="692" type="curve" smooth="yes"/>
      <point x="232.844" y="692"/>
      <point x="181.304" y="633"/>
      <point x="166.637" y="564" type="curve" smooth="yes"/>
      <point x="151.758" y="494"/>
      <point x="177.792" y="433"/>
      <point x="237.792" y="433" type="curve" smooth="yes"/>
      <point x="298.792" y="433"/>
      <point x="350.758" y="494"/>
      <point x="365.637" y="564" type="curve" smooth="yes"/>
      <point x="380.304" y="633"/>
      <point x="353.844" y="692"/>
    </contour>
    <contour>
      <point x="297.945" y="716" type="curve" smooth="yes"/>
      <point x="377.945" y="716"/>
      <point x="416.129" y="651"/>
      <point x="397.637" y="564" type="curve" smooth="yes"/>
      <point x="378.72" y="475"/>
      <point x="314.69" y="409"/>
      <point x="232.69" y="409" type="curve" smooth="yes"/>
      <point x="150.69" y="409"/>
      <point x="115.932" y="476"/>
      <point x="134.637" y="564" type="curve" smooth="yes"/>
      <point x="153.129" y="651"/>
      <point x="218.945" y="716"/>
    </contour>
  </outline>
</glyph>
<glyph name="ampersand" format="2">
  <advance width="700"/>
  <unicode hex="0026"/>
  <outline>
    <contour>
      <point x="261.941" y="429" type="curve"/>
      <point x="267.053" y="406" type="line"/>
      <point x="171.203" y="402"/>
      <point x="83.1113" y="331"/>
      <point x="58.2422" y="214" type="curve" smooth="yes"/>
      <point x="36.3486" y="111"/>
      <point x="73.5811" y="18"/>
      <point x="211.581" y="18" type="curve" smooth="yes"/>
      <point x="395.581" y="18"/>
      <point x="501.141" y="190"/>
      <point x="543.439" y="389" type="curve"/>
      <point x="570.377" y="384" type="line"/>
      <point x="527.44" y="182"/>
      <point x="411.055" y="-8"/>
      <point x="201.055" y="-8" type="curve" smooth="yes"/>
      <point x="56.0547" y="-8"/>
      <point x="-0.964844" y="86"/>
      <point x="26.2422" y="214" type="curve" smooth="yes"/>
      <point x="54.5117" y="347"/>
      <point x="160.092" y="425"/>
    </contour>
    <contour>
      <point x="452.391" y="417" type="line"/>
      <point x="651.227" y="388" type="line"/>
      <point x="645.488" y="361" type="line"/>
      <point x="447.29" y="393" type="line"/>
    </contour>
    <contour>
      <point x="416.945" y="716" type="curve" smooth="yes"/>
      <point x="460.945" y="716"/>
      <point x="498.183" y="703"/>
      <point x="520.931" y="683" type="curve"/>
      <point x="501.801" y="593" type="line"/>
      <point x="469.801" y="593" type="line"/>
      <point x="486.381" y="671" type="line"/>
      <point x="463.568" y="686"/>
      <point x="441.419" y="690"/>
      <point x="407.419" y="690" type="curve" smooth="yes"/>
      <point x="314.419" y="690"/>
      <point x="265.753" y="621"/>
      <point x="253.637" y="564" type="curve" smooth="yes"/>
      <point x="241.946" y="509"/>
      <point x="250.231" y="468"/>
      <point x="270.941" y="429" type="curve" smooth="yes"/>
      <point x="486.707" y="28" type="line"/>
      <point x="574.707" y="28" type="line"/>
      <point x="568.755" y="0" type="line"/>
      <point x="458.755" y="0" type="line"/>
      <point x="253.077" y="392" type="line" smooth="yes"/>
      <point x="223.98" y="448"/>
      <point x="208.246" y="501"/>
      <point x="220.361" y="558" type="curve" smooth="yes"/>
      <point x="235.666" y="630"/>
      <point x="295.945" y="716"/>
    </contour>
  </outline>
</glyph>
<glyph name="parenleft" format="2">
  <advance width="238"/>
  <unicode hex="0028"/>
  <outline>
    <contour>
      <point x="280.824" y="800" type="curve"/>
      <point x="290.636" y="785" type="line"/>
      <point x="180.994" y="702"/>
      <point x="96.4102" y="544"/>
      <point x="58.5752" y="366" type="curve" smooth="yes"/>
      <point x="26.2666" y="214"/>
      <point x="38.707" y="42"/>
      <point x="111.364" y="-49" type="curve"/>
      <point x="96.1758" y="-64" type="line"/>
      <point x="17.8809" y="24"/>
      <point x="-12.5352" y="182"/>
      <point x="26.5752" y="366" type="curve" smooth="yes"/>
      <point x="70.3613" y="572"/>
      <point x="166.545" y="714"/>
    </contour>
  </outline>
</glyph>
<glyph name="parenright" format="2">
  <advance width="238"/>
  <unicode hex="0029"/>
  <outline>
    <contour>
      <point x="140.824" y="800" type="curve"/>
      <point x="124.636" y="785" type="line"/>
      <point x="198.994" y="702"/>
      <point x="216.41" y="544"/>
      <point x="178.575" y="366" type="curve" smooth="yes"/>
      <point x="146.267" y="214"/>
      <point x="60.707" y="42"/>
      <point x="-50.6357" y="-49" type="curve"/>
      <point x="-41.8242" y="-64" type="line"/>
      <point x="73.8809" y="24"/>
      <point x="171.465" y="182"/>
      <point x="210.575" y="366" type="curve" smooth="yes"/>
      <point x="254.361" y="572"/>
      <point x="218.545" y="714"/>
    </contour>
  </outline>
</glyph>
<glyph name="asterisk" format="2">
  <advance width="467"/>
  <unicode hex="002A"/>
  <outline>
    <contour>
      <point x="253.984" y="806" type="line"/>
      <point x="286.984" y="806" type="line"/>
      <point x="282.521" y="785" type="line"/>
      <point x="236.3" y="624" type="line"/>
      <point x="383.479" y="686" type="line"/>
      <point x="418.028" y="698" type="line"/>
      <point x="422.864" y="669" type="line"/>
      <point x="400.951" y="660" type="line"/>
      <point x="235.599" y="616" type="line"/>
      <point x="308.28" y="511" type="line"/>
      <point x="324.841" y="476" type="line"/>
      <point x="296.016" y="458" type="line"/>
      <point x="279.667" y="494" type="line"/>
      <point x="229.536" y="611" type="line"/>
      <point x="129.667" y="494" type="line"/>
      <point x="97.0156" y="458" type="line"/>
      <point x="75.8408" y="476" type="line"/>
      <point x="105.28" y="511" type="line"/>
      <point x="225.599" y="616" type="line"/>
      <point x="82.9512" y="660" type="line"/>
      <point x="59.8643" y="669" type="line"/>
      <point x="76.0283" y="698" type="line"/>
      <point x="108.479" y="686" type="line"/>
      <point x="228.3" y="624" type="line"/>
      <point x="249.521" y="785" type="line"/>
    </contour>
  </outline>
</glyph>
<glyph name="comma" format="2">
  <advance width="145"/>
  <unicode hex="002C"/>
  <outline>
    <contour>
      <point x="46.0869" y="-143" type="curve"/>
      <point x="35.0869" y="-143" type="line"/>
      <point x="110.386" y="56" type="line"/>
      <point x="46.8115" y="58" type="line"/>
      <point x="53.9131" y="82" type="line"/>
      <point x="136.913" y="82" type="line"/>
      <point x="126.072" y="31"/>
      <point x="98.2412" y="-67"/>
    </contour>
  </outline>
</glyph>
<glyph name="period" format="2">
  <advance width="211"/>
  <unicode hex="002E"/>
  <outline>
    <contour>
      <point x="110.396" y="71" type="curve" smooth="yes"/>
      <point x="133.396" y="71"/>
      <point x="146.995" y="55"/>
      <point x="141.894" y="31" type="curve" smooth="yes"/>
      <point x="136.792" y="7"/>
      <point x="116.604" y="-8"/>
      <point x="93.6045" y="-8" type="curve" smooth="yes"/>
      <point x="70.6045" y="-8"/>
      <point x="57.792" y="7"/>
      <point x="62.8936" y="31" type="curve" smooth="yes"/>
      <point x="67.9951" y="55"/>
      <point x="87.3955" y="71"/>
    </contour>
  </outline>
</glyph>
<glyph name="slash" format="2">
  <advance width="346"/>
  <unicode hex="002F"/>
  <outline>
    <contour>
      <point x="423.269" y="772" type="line"/>
      <point x="446.718" y="760" type="line"/>
      <point x="-77.2686" y="-115" type="line"/>
      <point x="-100.718" y="-103" type="line"/>
    </contour>
  </outline>
</glyph>
<glyph name="zero" format="2">
  <advance width="550"/>
  <unicode hex="0030"/>
  <outline>
    <contour>
      <point x="345.419" y="690" type="curve" smooth="yes"/>
      <point x="204.419" y="690"/>
      <point x="135.961" y="542"/>
      <point x="97.0625" y="359" type="curve" smooth="yes"/>
      <point x="54.3389" y="158"/>
      <point x="62.5811" y="18"/>
      <point x="200.581" y="18" type="curve" smooth="yes"/>
      <point x="341.581" y="18"/>
      <point x="412.126" y="157"/>
      <point x="455.062" y="359" type="curve" smooth="yes"/>
      <point x="494.386" y="544"/>
      <point x="485.419" y="690"/>
    </contour>
    <contour>
      <point x="350.945" y="716" type="curve" smooth="yes"/>
      <point x="516.945" y="716"/>
      <point x="530.212" y="562"/>
      <point x="487.062" y="359" type="curve" smooth="yes"/>
      <point x="440.513" y="140"/>
      <point x="363.055" y="-8"/>
      <point x="196.055" y="-8" type="curve" smooth="yes"/>
      <point x="30.0547" y="-8"/>
      <point x="20.8506" y="151"/>
      <point x="65.0625" y="359" type="curve" smooth="yes"/>
      <point x="108.637" y="564"/>
      <point x="184.945" y="716"/>
    </contour>
  </outline>
</glyph>
<glyph name="one" format="2">
  <advance width="550"/>
  <unicode hex="0031"/>
  <outline>
    <contour>
      <point x="336.506" y="681" type="curve"/>
      <point x="197.707" y="28" type="line"/>
      <point x="31.707" y="28" type="line"/>
      <point x="25.7549" y="0" type="line"/>
      <point x="381.755" y="0" type="line"/>
      <point x="387.707" y="28" type="line"/>
      <point x="229.707" y="28" type="line"/>
      <point x="374.245" y="708" type="line"/>
      <point x="345.245" y="708" type="line"/>
      <point x="328.119" y="698"/>
      <point x="210.304" y="633"/>
      <point x="165.84" y="612" type="curve"/>
      <point x="158.4" y="577" type="line"/>
      <point x="202.438" y="596"/>
      <point x="285.642" y="644"/>
    </contour>
  </outline>
</glyph>
<glyph name="two" format="2">
  <advance width="550"/>
  <unicode hex="0032"/>
  <outline>
    <contour>
      <point x="136.767" y="658" type="line"/>
      <point x="207.632" y="695"/>
      <point x="257.096" y="716"/>
      <point x="327.096" y="716" type="curve" smooth="yes"/>
      <point x="460.096" y="716"/>
      <point x="523.941" y="640"/>
      <point x="499.284" y="524" type="curve" smooth="yes"/>
      <point x="479.729" y="432"/>
      <point x="381.024" y="344"/>
      <point x="301.508" y="271" type="curve" smooth="yes"/>
      <point x="43.707" y="32" type="line"/>
      <point x="376.707" y="32" type="line"/>
      <point x="409.011" y="104" type="line"/>
      <point x="413.773" y="117"/>
      <point x="420.049" y="123"/>
      <point x="431.049" y="123" type="curve"/>
      <point x="438.262" y="124" type="line"/>
      <point x="395.904" y="0" type="line"/>
      <point x="-3.0957" y="0" type="line"/>
      <point x="1.36816" y="21" type="line"/>
      <point x="268.146" y="274" type="line" smooth="yes"/>
      <point x="349.512" y="351"/>
      <point x="446.879" y="428"/>
      <point x="467.284" y="524" type="curve" smooth="yes"/>
      <point x="491.091" y="636"/>
      <point x="424.568" y="690"/>
      <point x="321.568" y="690" type="curve" smooth="yes"/>
      <point x="251.568" y="690"/>
      <point x="184.979" y="659"/>
      <point x="138.453" y="633" type="curve"/>
    </contour>
  </outline>
</glyph>
<glyph name="three" format="2">
  <advance width="550"/>
  <unicode hex="0033"/>
  <outline>
    <contour>
      <point x="164.096" y="708" type="line"/>
      <point x="526.096" y="708" type="line"/>
      <point x="520.568" y="682" type="line"/>
      <point x="276.517" y="423" type="line"/>
      <point x="397.517" y="423"/>
      <point x="484" y="350"/>
      <point x="455.093" y="214" type="curve" smooth="yes"/>
      <point x="426.822" y="81"/>
      <point x="327.904" y="-8"/>
      <point x="185.904" y="-8" type="curve" smooth="yes"/>
      <point x="94.9043" y="-8"/>
      <point x="43.3682" y="13"/>
      <point x="3.6582" y="52" type="curve"/>
      <point x="12.2471" y="83" type="line"/>
      <point x="56.2568" y="36"/>
      <point x="110.432" y="18"/>
      <point x="191.432" y="18" type="curve" smooth="yes"/>
      <point x="326.432" y="18"/>
      <point x="399.924" y="105"/>
      <point x="423.093" y="214" type="curve" smooth="yes"/>
      <point x="444.773" y="316"/>
      <point x="384.99" y="397"/>
      <point x="276.99" y="397" type="curve" smooth="yes"/>
      <point x="239.99" y="397" type="line"/>
      <point x="245.304" y="422" type="line"/>
      <point x="487.719" y="678" type="line"/>
      <point x="177.719" y="678" type="line"/>
      <point x="159.227" y="591" type="line"/>
      <point x="139.227" y="591" type="line"/>
    </contour>
  </outline>
</glyph>
<glyph name="four" format="2">
  <advance width="550"/>
  <unicode hex="0034"/>
  <outline>
    <contour>
      <point x="354.245" y="708" type="line"/>
      <point x="390.245" y="708" type="line"/>
      <point x="54" y="210" type="line"/>
      <point x="336.392" y="210" type="line"/>
      <point x="380.391" y="417" type="line"/>
      <point x="412.391" y="417" type="line"/>
      <point x="368.392" y="210" type="line"/>
      <point x="470.392" y="210" type="line"/>
      <point x="465.716" y="188" type="line"/>
      <point x="362.865" y="184" type="line"/>
      <point x="329.281" y="26" type="line"/>
      <point x="403.281" y="26" type="line"/>
      <point x="397.755" y="0" type="line"/>
      <point x="217.755" y="0" type="line"/>
      <point x="223.281" y="26" type="line"/>
      <point x="297.281" y="26" type="line"/>
      <point x="330.865" y="184" type="line"/>
      <point x="13.8652" y="184" type="line"/>
      <point x="19.3916" y="210" type="line"/>
    </contour>
  </outline>
</glyph>
<glyph name="five" format="2">
  <advance width="550"/>
  <unicode hex="0035"/>
  <outline>
    <contour>
      <point x="188.096" y="708" type="line"/>
      <point x="521.096" y="708" type="line"/>
      <point x="514.506" y="677" type="line"/>
      <point x="203.506" y="677" type="line"/>
      <point x="127.102" y="374" type="line"/>
      <point x="172.241" y="417"/>
      <point x="236.067" y="435"/>
      <point x="294.067" y="435" type="curve" smooth="yes"/>
      <point x="416.067" y="435"/>
      <point x="475.851" y="354"/>
      <point x="446.093" y="214" type="curve" smooth="yes"/>
      <point x="415.484" y="70"/>
      <point x="301.904" y="-8"/>
      <point x="166.904" y="-8" type="curve" smooth="yes"/>
      <point x="87.9043" y="-8"/>
      <point x="41.7305" y="10"/>
      <point x="-9.06641" y="58" type="curve"/>
      <point x="4.16016" y="92" type="line"/>
      <point x="48.4072" y="32"/>
      <point x="117.128" y="14"/>
      <point x="171.581" y="14" type="curve" smooth="yes"/>
      <point x="308.581" y="14"/>
      <point x="390.286" y="102"/>
      <point x="413.455" y="211" type="curve" smooth="yes"/>
      <point x="440.024" y="336"/>
      <point x="388.541" y="409"/>
      <point x="285.541" y="409" type="curve" smooth="yes"/>
      <point x="197.541" y="409"/>
      <point x="144.889" y="373"/>
      <point x="107.449" y="338" type="curve"/>
      <point x="93.4492" y="338" type="line"/>
    </contour>
  </outline>
</glyph>
<glyph name="six" format="2">
  <advance width="550"/>
  <unicode hex="0036"/>
  <outline>
    <contour>
      <point x="442.265" y="719" type="curve"/>
      <point x="440.163" y="695" type="line"/>
      <point x="286.337" y="677"/>
      <point x="135.753" y="519"/>
      <point x="93.667" y="321" type="curve"/>
      <point x="134.782" y="378"/>
      <point x="197.599" y="443"/>
      <point x="308.599" y="443" type="curve" smooth="yes"/>
      <point x="421.599" y="443"/>
      <point x="488.231" y="366"/>
      <point x="457.836" y="223" type="curve" smooth="yes"/>
      <point x="429.142" y="88"/>
      <point x="325.735" y="-8"/>
      <point x="202.735" y="-8" type="curve" smooth="yes"/>
      <point x="62.7354" y="-8"/>
      <point x="12.0781" y="83"/>
      <point x="58.6279" y="302" type="curve" smooth="yes"/>
      <point x="106.453" y="527"/>
      <point x="269.013" y="699"/>
    </contour>
    <contour>
      <point x="291.072" y="417" type="curve" smooth="yes"/>
      <point x="193.072" y="417"/>
      <point x="96.3672" y="329"/>
      <point x="73.8359" y="223" type="curve" smooth="yes"/>
      <point x="47.9043" y="101"/>
      <point x="95.2617" y="18"/>
      <point x="206.262" y="18" type="curve" smooth="yes"/>
      <point x="312.262" y="18"/>
      <point x="399.691" y="100"/>
      <point x="425.836" y="223" type="curve" smooth="yes"/>
      <point x="451.556" y="344"/>
      <point x="398.072" y="417"/>
    </contour>
  </outline>
</glyph>
<glyph name="seven" format="2">
  <advance width="550"/>
  <unicode hex="0037"/>
  <outline>
    <contour>
      <point x="140.245" y="708" type="line"/>
      <point x="554.245" y="708" type="line"/>
      <point x="548.081" y="679" type="line"/>
      <point x="123.755" y="0" type="line"/>
      <point x="84.7549" y="0" type="line"/>
      <point x="516.443" y="676" type="line"/>
      <point x="130.443" y="676" type="line"/>
    </contour>
  </outline>
</glyph>
<glyph name="eight" format="2">
  <advance width="550"/>
  <unicode hex="0038"/>
  <outline>
    <contour>
      <point x="350.839" y="716" type="curve" smooth="yes"/>
      <point x="466.839" y="716"/>
      <point x="531.685" y="640"/>
      <point x="508.091" y="529" type="curve" smooth="yes"/>
      <point x="491.725" y="452"/>
      <point x="416.058" y="383"/>
      <point x="356.444" y="366" type="curve"/>
      <point x="419.618" y="348"/>
      <point x="471.652" y="287"/>
      <point x="449.972" y="185" type="curve" smooth="yes"/>
      <point x="426.165" y="73"/>
      <point x="326.161" y="-7"/>
      <point x="197.161" y="-7" type="curve" smooth="yes"/>
      <point x="69.1611" y="-7"/>
      <point x="3.74023" y="71"/>
      <point x="27.5469" y="183" type="curve" smooth="yes"/>
      <point x="51.9902" y="298"/>
      <point x="120.28" y="337"/>
      <point x="196.444" y="366" type="curve"/>
      <point x="138.271" y="384"/>
      <point x="97.5986" y="442"/>
      <point x="116.091" y="529" type="curve" smooth="yes"/>
      <point x="140.11" y="642"/>
      <point x="234.839" y="716"/>
    </contour>
    <contour>
      <point x="345.312" y="690" type="curve" smooth="yes"/>
      <point x="247.312" y="690"/>
      <point x="168.922" y="627"/>
      <point x="148.517" y="531" type="curve" smooth="yes"/>
      <point x="127.898" y="434"/>
      <point x="195.995" y="378"/>
      <point x="278.995" y="378" type="curve" smooth="yes"/>
      <point x="363.995" y="378"/>
      <point x="455.898" y="434"/>
      <point x="476.517" y="531" type="curve" smooth="yes"/>
      <point x="496.922" y="627"/>
      <point x="444.312" y="690"/>
    </contour>
    <contour>
      <point x="274.106" y="355" type="curve" smooth="yes"/>
      <point x="184.106" y="355"/>
      <point x="83.3525" y="295"/>
      <point x="61.2471" y="191" type="curve" smooth="yes"/>
      <point x="37.8662" y="81"/>
      <point x="103.688" y="19"/>
      <point x="202.688" y="19" type="curve" smooth="yes"/>
      <point x="302.688" y="19"/>
      <point x="395.866" y="81"/>
      <point x="419.247" y="191" type="curve" smooth="yes"/>
      <point x="441.778" y="297"/>
      <point x="367.106" y="355"/>
    </contour>
  </outline>
</glyph>
<glyph name="nine" format="2">
  <advance width="550"/>
  <unicode hex="0039"/>
  <outline>
    <contour>
      <point x="353.265" y="716" type="curve" smooth="yes"/>
      <point x="477.265" y="716"/>
      <point x="546.047" y="635"/>
      <point x="503.323" y="434" type="curve" smooth="yes"/>
      <point x="452.947" y="197"/>
      <point x="294.663" y="31"/>
      <point x="67.7354" y="-11" type="curve"/>
      <point x="66.9238" y="4" type="line"/>
      <point x="281.977" y="56"/>
      <point x="425.262" y="222"/>
      <point x="460.759" y="389" type="curve"/>
      <point x="418.329" y="307"/>
      <point x="346.126" y="259"/>
      <point x="241.126" y="259" type="curve" smooth="yes"/>
      <point x="129.126" y="259"/>
      <point x="62.8311" y="347"/>
      <point x="91.5264" y="482" type="curve" smooth="yes"/>
      <point x="122.347" y="627"/>
      <point x="230.265" y="716"/>
    </contour>
    <contour>
      <point x="345.738" y="690" type="curve"/>
      <point x="239.95" y="691"/>
      <point x="150.521" y="609"/>
      <point x="123.526" y="482" type="curve" smooth="yes"/>
      <point x="97.5938" y="360"/>
      <point x="163.652" y="285"/>
      <point x="252.652" y="285" type="curve" smooth="yes"/>
      <point x="357.652" y="285"/>
      <point x="453.807" y="361"/>
      <point x="479.526" y="482" type="curve" smooth="yes"/>
      <point x="502.907" y="592"/>
      <point x="462.95" y="691"/>
    </contour>
  </outline>
</glyph>
<glyph name="A" format="2">
  <advance width="588"/>
  <unicode hex="0041"/>
  <anchor x="413.954" y="876" name="AccentCenter"/>
  <outline>
    <contour>
      <point x="431" y="708" type="line"/>
      <point x="510" y="26" type="line"/>
      <point x="551" y="26" type="line"/>
      <point x="546" y="0" type="line"/>
      <point x="419" y="0" type="line"/>
      <point x="424" y="26" type="line"/>
      <point x="470" y="26" type="line"/>
      <point x="451" y="214" type="line"/>
      <point x="147" y="214" type="line"/>
      <point x="48" y="26" type="line"/>
      <point x="90" y="26" type="line"/>
      <point x="85" y="0" type="line"/>
      <point x="-28" y="0" type="line"/>
      <point x="-23" y="26" type="line"/>
      <point x="13" y="26" type="line"/>
      <point x="381" y="689" type="line"/>
      <point x="379" y="708" type="line"/>
    </contour>
    <contour>
      <point x="400" y="672" type="line"/>
      <point x="162" y="242" type="line"/>
      <point x="450" y="242" type="line"/>
      <point x="408" y="672" type="line"/>
    </contour>
  </outline>
</glyph>
<glyph name="B" format="2">
  <advance width="594"/>
  <unicode hex="0042"/>
  <outline>
    <contour>
      <point x="157" y="708" type="line"/>
      <point x="426" y="708" type="line" smooth="yes"/>
      <point x="527" y="708"/>
      <point x="577" y="665"/>
      <point x="577" y="584" type="curve" smooth="yes"/>
      <point x="577" y="482"/>
      <point x="508" y="406"/>
      <point x="433" y="379" type="curve"/>
      <point x="511" y="364"/>
      <point x="536" y="300"/>
      <point x="536" y="235" type="curve" smooth="yes"/>
      <point x="536" y="84"/>
      <point x="413" y="0"/>
      <point x="305" y="0" type="curve" smooth="yes"/>
      <point x="5" y="0" type="line"/>
      <point x="10" y="26" type="line"/>
      <point x="70" y="26" type="line"/>
      <point x="210" y="682" type="line"/>
      <point x="152" y="682" type="line"/>
    </contour>
    <contour>
      <point x="242" y="682" type="line"/>
      <point x="179" y="389" type="line"/>
      <point x="370" y="389" type="line" smooth="yes"/>
      <point x="460" y="389"/>
      <point x="545" y="484"/>
      <point x="545" y="582" type="curve" smooth="yes"/>
      <point x="545" y="642"/>
      <point x="513" y="682"/>
      <point x="419" y="682" type="curve" smooth="yes"/>
    </contour>
    <contour>
      <point x="175" y="367" type="line"/>
      <point x="102" y="26" type="line"/>
      <point x="310" y="26" type="line" smooth="yes"/>
      <point x="401" y="26"/>
      <point x="505" y="101"/>
      <point x="505" y="240" type="curve" smooth="yes"/>
      <point x="505" y="296"/>
      <point x="485" y="367"/>
      <point x="376" y="367" type="curve" smooth="yes"/>
    </contour>
  </outline>
</glyph>
<glyph name="C" format="2">
  <advance width="603"/>
  <unicode hex="0043"/>
  <outline>
    <contour>
      <point x="421" y="716" type="curve" smooth="yes"/>
      <point x="496" y="716"/>
      <point x="554" y="697"/>
      <point x="598" y="653" type="curve"/>
      <point x="575" y="547" type="line"/>
      <point x="545" y="547" type="line"/>
      <point x="565" y="641" type="line"/>
      <point x="538" y="670"/>
      <point x="482" y="690"/>
      <point x="415" y="690" type="curve" smooth="yes"/>
      <point x="292" y="690"/>
      <point x="135" y="586"/>
      <point x="86" y="352" type="curve" smooth="yes"/>
      <point x="43" y="150"/>
      <point x="117" y="18"/>
      <point x="271" y="18" type="curve" smooth="yes"/>
      <point x="346" y="18"/>
      <point x="432" y="53"/>
      <point x="481" y="90" type="curve"/>
      <point x="492" y="65" type="line"/>
      <point x="437" y="30"/>
      <point x="360" y="-8"/>
      <point x="265" y="-8" type="curve" smooth="yes"/>
      <point x="83" y="-8"/>
      <point x="7" y="135"/>
      <point x="54" y="352" type="curve" smooth="yes"/>
      <point x="108" y="608"/>
      <point x="273" y="716"/>
    </contour>
  </outline>
</glyph>
<glyph name="D" format="2">
  <advance width="618"/>
  <unicode hex="0044"/>
  <outline>
    <contour>
      <point x="115.245" y="708" type="line"/>
      <point x="342.245" y="708" type="line" smooth="yes"/>
      <point x="525.245" y="708"/>
      <point x="603.101" y="585"/>
      <point x="555.488" y="361" type="curve" smooth="yes"/>
      <point x="505.112" y="124"/>
      <point x="376.755" y="0"/>
      <point x="187.755" y="0" type="curve" smooth="yes"/>
      <point x="-35.2451" y="0" type="line"/>
      <point x="-29.7188" y="26" type="line"/>
      <point x="27.2812" y="26" type="line"/>
      <point x="166.719" y="682" type="line"/>
      <point x="109.719" y="682" type="line"/>
    </contour>
    <contour>
      <point x="199.719" y="682" type="line"/>
      <point x="60.2812" y="26" type="line"/>
      <point x="195.281" y="26" type="line" smooth="yes"/>
      <point x="374.281" y="26"/>
      <point x="481.401" y="163"/>
      <point x="523.488" y="361" type="curve" smooth="yes"/>
      <point x="562.811" y="546"/>
      <point x="511.719" y="682"/>
      <point x="336.719" y="682" type="curve" smooth="yes"/>
    </contour>
  </outline>
</glyph>
<glyph name="E" format="2">
  <advance width="555"/>
  <unicode hex="0045"/>
  <anchor x="393.805" y="880" name="AccentCenter"/>
  <outline>
    <contour>
      <point x="115.245" y="708" type="line"/>
      <point x="562.245" y="708" type="line"/>
      <point x="537.589" y="592" type="line"/>
      <point x="511.589" y="592" type="line"/>
      <point x="530.931" y="683" type="line"/>
      <point x="206.931" y="683" type="line"/>
      <point x="142.526" y="380" type="line"/>
      <point x="388.526" y="380" type="line"/>
      <point x="398.941" y="429" type="line"/>
      <point x="424.941" y="429" type="line"/>
      <point x="398.585" y="305" type="line"/>
      <point x="372.585" y="305" type="line"/>
      <point x="383" y="354" type="line"/>
      <point x="137" y="354" type="line"/>
      <point x="67.2812" y="26" type="line"/>
      <point x="411.281" y="26" type="line"/>
      <point x="431.262" y="120" type="line"/>
      <point x="457.262" y="120" type="line"/>
      <point x="431.755" y="0" type="line"/>
      <point x="-35.2451" y="0" type="line"/>
      <point x="-29.7188" y="26" type="line"/>
      <point x="35.2812" y="26" type="line"/>
      <point x="174.719" y="682" type="line"/>
      <point x="109.719" y="682" type="line"/>
    </contour>
  </outline>
</glyph>
<glyph name="F" format="2">
  <advance width="511"/>
  <unicode hex="0046"/>
  <outline>
    <contour>
      <point x="107.245" y="708" type="line"/>
      <point x="564.245" y="708" type="line"/>
      <point x="535.125" y="571" type="line"/>
      <point x="509.125" y="571" type="line"/>
      <point x="532.719" y="682" type="line"/>
      <point x="198.719" y="682" type="line"/>
      <point x="134.526" y="380" type="line"/>
      <point x="406.526" y="380" type="line"/>
      <point x="401" y="354" type="line"/>
      <point x="129" y="354" type="line"/>
      <point x="59.2812" y="26" type="line"/>
      <point x="137.281" y="26" type="line"/>
      <point x="131.755" y="0" type="line"/>
      <point x="-43.2451" y="0" type="line"/>
      <point x="-37.7188" y="26" type="line"/>
      <point x="27.2812" y="26" type="line"/>
      <point x="166.719" y="682" type="line"/>
      <point x="101.719" y="682" type="line"/>
    </contour>
  </outline>
</glyph>
<glyph name="G" format="2">
  <advance width="622"/>
  <unicode hex="0047"/>
  <outline>
    <contour>
      <point x="433.945" y="716" type="curve" smooth="yes"/>
      <point x="511.945" y="716"/>
      <point x="566.332" y="699"/>
      <point x="608.68" y="663" type="curve"/>
      <point x="586.149" y="557" type="line"/>
      <point x="556.149" y="557" type="line"/>
      <point x="575.746" y="648.594" type="line"/>
      <point x="528.858" y="678.45"/>
      <point x="490.419" y="690"/>
      <point x="428.419" y="690" type="curve" smooth="yes"/>
      <point x="257.419" y="690"/>
      <point x="138.299" y="553"/>
      <point x="95.5752" y="352" type="curve" smooth="yes"/>
      <point x="44.5615" y="112"/>
      <point x="149.581" y="18"/>
      <point x="308.581" y="18" type="curve" smooth="yes"/>
      <point x="362.581" y="18"/>
      <point x="411.494" y="27"/>
      <point x="442.619" y="37" type="curve"/>
      <point x="511.275" y="360" type="line"/>
      <point x="329.275" y="360" type="line"/>
      <point x="334.802" y="386" type="line"/>
      <point x="588.802" y="386" type="line"/>
      <point x="578.275" y="360" type="line"/>
      <point x="544.275" y="360" type="line"/>
      <point x="473.069" y="25" type="line"/>
      <point x="412.817" y="5"/>
      <point x="376.055" y="-8"/>
      <point x="296.055" y="-8" type="curve" smooth="yes"/>
      <point x="120.055" y="-8"/>
      <point x="8.09766" y="91"/>
      <point x="63.5752" y="352" type="curve" smooth="yes"/>
      <point x="110.125" y="571"/>
      <point x="241.945" y="716"/>
    </contour>
  </outline>
</glyph>
<glyph name="H" format="2">
  <advance width="616"/>
  <unicode hex="0048"/>
  <outline>
    <contour>
      <point x="295.245" y="708" type="line"/>
      <point x="289.719" y="682" type="line"/>
      <point x="215.719" y="682" type="line"/>
      <point x="154.077" y="392" type="line"/>
      <point x="478.077" y="392" type="line"/>
      <point x="539.719" y="682" type="line"/>
      <point x="465.719" y="682" type="line"/>
      <point x="471.245" y="708" type="line"/>
      <point x="651.245" y="708" type="line"/>
      <point x="645.719" y="682" type="line"/>
      <point x="571.719" y="682" type="line"/>
      <point x="432.281" y="26" type="line"/>
      <point x="506.281" y="26" type="line"/>
      <point x="500.755" y="0" type="line"/>
      <point x="320.755" y="0" type="line"/>
      <point x="326.281" y="26" type="line"/>
      <point x="400.281" y="26" type="line"/>
      <point x="472.551" y="366" type="line"/>
      <point x="148.551" y="366" type="line"/>
      <point x="76.2812" y="26" type="line"/>
      <point x="150.281" y="26" type="line"/>
      <point x="144.755" y="0" type="line"/>
      <point x="-35.2451" y="0" type="line"/>
      <point x="-29.7188" y="26" type="line"/>
      <point x="44.2812" y="26" type="line"/>
      <point x="183.719" y="682" type="line"/>
      <point x="109.719" y="682" type="line"/>
      <point x="115.245" y="708" type="line"/>
    </contour>
  </outline>
</glyph>
<glyph name="I" format="2">
  <advance width="260"/>
  <unicode hex="0049"/>
  <anchor x="242.954" y="876" name="AccentCenter"/>
  <outline>
    <contour>
      <point x="115.245" y="708" type="line"/>
      <point x="295.245" y="708" type="line"/>
      <point x="289.719" y="682" type="line"/>
      <point x="215.719" y="682" type="line"/>
      <point x="76.2812" y="26" type="line"/>
      <point x="150.281" y="26" type="line"/>
      <point x="144.755" y="0" type="line"/>
      <point x="-35.2451" y="0" type="line"/>
      <point x="-29.7188" y="26" type="line"/>
      <point x="44.2812" y="26" type="line"/>
      <point x="183.719" y="682" type="line"/>
      <point x="109.719" y="682" type="line"/>
    </contour>
  </outline>
</glyph>
<glyph name="J" format="2">
  <advance width="350"/>
  <unicode hex="004A"/>
  <outline>
    <contour>
      <point x="159.096" y="708" type="line"/>
      <point x="354.096" y="708" type="line"/>
      <point x="238.465" y="164" type="line" smooth="yes"/>
      <point x="222.311" y="88"/>
      <point x="167.904" y="-8"/>
      <point x="39.9043" y="-8" type="curve" smooth="yes"/>
      <point x="8.9043" y="-8"/>
      <point x="-17.458" y="-5"/>
      <point x="-44.3945" y="0" type="curve"/>
      <point x="-35.293" y="24" type="line"/>
      <point x="36.6436" y="19" type="line" smooth="yes"/>
      <point x="107.794" y="15"/>
      <point x="180.32" y="41"/>
      <point x="203.063" y="148" type="curve" smooth="yes"/>
      <point x="316.568" y="682" type="line"/>
      <point x="153.568" y="682" type="line"/>
    </contour>
  </outline>
</glyph>
<glyph name="K" format="2">
  <advance width="584"/>
  <unicode hex="004B"/>
  <outline>
    <contour>
      <point x="115.245" y="708" type="line"/>
      <point x="294.245" y="708" type="line"/>
      <point x="288.719" y="682" type="line"/>
      <point x="214.719" y="682" type="line"/>
      <point x="145.851" y="358" type="line"/>
      <point x="524.719" y="682" type="line"/>
      <point x="459.719" y="682" type="line"/>
      <point x="465.245" y="708" type="line"/>
      <point x="608.245" y="708" type="line"/>
      <point x="602.719" y="682" type="line"/>
      <point x="558.719" y="682" type="line"/>
      <point x="176.488" y="361" type="line"/>
      <point x="421.281" y="26" type="line"/>
      <point x="482.281" y="26" type="line"/>
      <point x="476.755" y="0" type="line"/>
      <point x="386.755" y="0" type="line"/>
      <point x="143.874" y="344" type="line"/>
      <point x="142.874" y="344" type="line"/>
      <point x="75.2812" y="26" type="line"/>
      <point x="149.281" y="26" type="line"/>
      <point x="143.755" y="0" type="line"/>
      <point x="-35.2451" y="0" type="line"/>
      <point x="-29.7188" y="26" type="line"/>
      <point x="44.2812" y="26" type="line"/>
      <point x="183.719" y="682" type="line"/>
      <point x="109.719" y="682" type="line"/>
    </contour>
  </outline>
</glyph>
<glyph name="L" format="2">
  <advance width="470"/>
  <unicode hex="004C"/>
  <outline>
    <contour>
      <point x="115.245" y="708" type="line"/>
      <point x="295.245" y="708" type="line"/>
      <point x="289.719" y="682" type="line"/>
      <point x="215.719" y="682" type="line"/>
      <point x="76.2812" y="26" type="line"/>
      <point x="374.281" y="26" type="line"/>
      <point x="393.199" y="115" type="line"/>
      <point x="419.199" y="115" type="line"/>
      <point x="394.755" y="0" type="line"/>
      <point x="-35.2451" y="0" type="line"/>
      <point x="-29.7188" y="26" type="line"/>
      <point x="44.2812" y="26" type="line"/>
      <point x="183.719" y="682" type="line"/>
      <point x="109.719" y="682" type="line"/>
    </contour>
  </outline>
</glyph>
<glyph name="M" format="2">
  <advance width="731"/>
  <unicode hex="004D"/>
  <outline>
    <contour>
      <point x="115.245" y="708" type="line"/>
      <point x="224.245" y="708" type="line"/>
      <point x="353.657" y="263" type="line"/>
      <point x="656.245" y="708" type="line"/>
      <point x="766.245" y="708" type="line"/>
      <point x="760.719" y="682" type="line"/>
      <point x="686.719" y="682" type="line"/>
      <point x="547.281" y="26" type="line"/>
      <point x="621.281" y="26" type="line"/>
      <point x="615.755" y="0" type="line"/>
      <point x="435.755" y="0" type="line"/>
      <point x="441.281" y="26" type="line"/>
      <point x="515.281" y="26" type="line"/>
      <point x="647.279" y="647" type="line"/>
      <point x="369.344" y="238" type="line"/>
      <point x="325.344" y="238" type="line"/>
      <point x="206.153" y="637" type="line"/>
      <point x="76.2812" y="26" type="line"/>
      <point x="150.281" y="26" type="line"/>
      <point x="144.755" y="0" type="line"/>
      <point x="-35.2451" y="0" type="line"/>
      <point x="-29.7188" y="26" type="line"/>
      <point x="44.2812" y="26" type="line"/>
      <point x="183.719" y="682" type="line"/>
      <point x="109.719" y="682" type="line"/>
    </contour>
  </outline>
</glyph>
<glyph name="N" format="2">
  <advance width="681"/>
  <unicode hex="004E"/>
  <outline>
    <contour>
      <point x="115.245" y="708" type="line"/>
      <point x="220.245" y="708" type="line"/>
      <point x="473.571" y="65" type="line"/>
      <point x="604.719" y="682" type="line"/>
      <point x="530.719" y="682" type="line"/>
      <point x="536.245" y="708" type="line"/>
      <point x="716.245" y="708" type="line"/>
      <point x="710.719" y="682" type="line"/>
      <point x="636.719" y="682" type="line"/>
      <point x="494.519" y="13" type="line"/>
      <point x="461.755" y="0" type="line"/>
      <point x="208.066" y="646" type="line"/>
      <point x="76.2812" y="26" type="line"/>
      <point x="150.281" y="26" type="line"/>
      <point x="144.755" y="0" type="line"/>
      <point x="-35.2451" y="0" type="line"/>
      <point x="-29.7188" y="26" type="line"/>
      <point x="44.2812" y="26" type="line"/>
      <point x="183.719" y="682" type="line"/>
      <point x="109.719" y="682" type="line"/>
    </contour>
  </outline>
</glyph>
<glyph name="O" format="2">
  <advance width="672"/>
  <unicode hex="004F"/>
  <anchor x="449.954" y="876" name="AccentCenter"/>
  <outline>
    <contour>
      <point x="414.945" y="716" type="curve" smooth="yes"/>
      <point x="575.945" y="716"/>
      <point x="655.825" y="579"/>
      <point x="608" y="354" type="curve" smooth="yes"/>
      <point x="559.962" y="128"/>
      <point x="422.055" y="-8"/>
      <point x="261.055" y="-8" type="curve" smooth="yes"/>
      <point x="99.0547" y="-8"/>
      <point x="15.9619" y="128"/>
      <point x="64" y="354" type="curve" smooth="yes"/>
      <point x="111.825" y="579"/>
      <point x="252.945" y="716"/>
    </contour>
    <contour>
      <point x="409.419" y="690" type="curve" smooth="yes"/>
      <point x="263.419" y="690"/>
      <point x="138.086" y="552"/>
      <point x="96" y="354" type="curve" smooth="yes"/>
      <point x="53.7012" y="155"/>
      <point x="120.581" y="18"/>
      <point x="266.581" y="18" type="curve" smooth="yes"/>
      <point x="411.581" y="18"/>
      <point x="532.851" y="151"/>
      <point x="576" y="354" type="curve" smooth="yes"/>
      <point x="619.149" y="557"/>
      <point x="554.419" y="690"/>
    </contour>
  </outline>
</glyph>
<glyph name="P" format="2">
  <advance width="570"/>
  <unicode hex="0050"/>
  <outline>
    <contour>
      <point x="115.245" y="708" type="line"/>
      <point x="377.245" y="708" type="line" smooth="yes"/>
      <point x="488.245" y="708"/>
      <point x="568.366" y="638"/>
      <point x="540.096" y="505" type="curve" smooth="yes"/>
      <point x="507.787" y="353"/>
      <point x="398.908" y="283"/>
      <point x="269.908" y="283" type="curve" smooth="yes"/>
      <point x="104.908" y="283" type="line"/>
      <point x="49.4316" y="22" type="line"/>
      <point x="97.4316" y="22" type="line"/>
      <point x="92.7549" y="0" type="line"/>
      <point x="-35.2451" y="0" type="line"/>
      <point x="-30.5684" y="22" type="line"/>
      <point x="17.4316" y="22" type="line"/>
      <point x="157.719" y="682" type="line"/>
      <point x="109.719" y="682" type="line"/>
    </contour>
    <contour>
      <point x="189.719" y="682" type="line"/>
      <point x="110.435" y="309" type="line"/>
      <point x="275.435" y="309" type="line" smooth="yes"/>
      <point x="380.435" y="309"/>
      <point x="477.275" y="360"/>
      <point x="508.096" y="505" type="curve" smooth="yes"/>
      <point x="533.815" y="626"/>
      <point x="456.719" y="682"/>
      <point x="371.719" y="682" type="curve" smooth="yes"/>
    </contour>
  </outline>
</glyph>
<glyph name="Q" format="2">
  <advance width="672"/>
  <unicode hex="0051"/>
  <outline>
    <contour>
      <point x="410" y="716" type="curve" smooth="yes"/>
      <point x="568" y="716"/>
      <point x="622" y="574"/>
      <point x="622" y="437" type="curve" smooth="yes"/>
      <point x="622" y="134"/>
      <point x="446" y="-7"/>
      <point x="289" y="-7" type="curve"/>
      <point x="532" y="-108" type="line"/>
      <point x="518.025" y="-140" type="line"/>
      <point x="221.934" y="-4" type="line" smooth="yes"/>
      <point x="89.8994" y="57"/>
      <point x="72" y="159"/>
      <point x="72" y="279" type="curve" smooth="yes"/>
      <point x="72" y="564"/>
      <point x="231" y="716"/>
    </contour>
    <contour>
      <point x="404" y="690" type="curve" smooth="yes"/>
      <point x="241" y="690"/>
      <point x="104" y="536"/>
      <point x="104" y="279" type="curve" smooth="yes"/>
      <point x="104" y="137"/>
      <point x="154" y="18"/>
      <point x="285.609" y="18" type="curve" smooth="yes"/>
      <point x="431" y="18"/>
      <point x="590" y="146"/>
      <point x="590" y="437" type="curve" smooth="yes"/>
      <point x="590" y="555"/>
      <point x="549" y="690"/>
    </contour>
  </outline>
</glyph>
<glyph name="R" format="2">
  <advance width="592"/>
  <unicode hex="0052"/>
  <outline>
    <contour>
      <point x="115.245" y="708" type="line"/>
      <point x="398.245" y="708" type="line" smooth="yes"/>
      <point x="524.245" y="708"/>
      <point x="587.429" y="643"/>
      <point x="559.371" y="511" type="curve" smooth="yes"/>
      <point x="532.589" y="385"/>
      <point x="436.261" y="327"/>
      <point x="342.773" y="320" type="curve"/>
      <point x="437.281" y="26" type="line"/>
      <point x="494.281" y="26" type="line"/>
      <point x="488.755" y="0" type="line"/>
      <point x="421.755" y="0" type="line"/>
      <point x="396.557" y="32" type="line"/>
      <point x="305.773" y="320" type="line"/>
      <point x="130.773" y="320" type="line"/>
      <point x="68.2812" y="26" type="line"/>
      <point x="137.281" y="26" type="line"/>
      <point x="131.755" y="0" type="line"/>
      <point x="-35.2451" y="0" type="line"/>
      <point x="-29.7188" y="26" type="line"/>
      <point x="36.2812" y="26" type="line"/>
      <point x="175.719" y="682" type="line"/>
      <point x="109.719" y="682" type="line"/>
    </contour>
    <contour>
      <point x="136.3" y="346" type="line"/>
      <point x="302.3" y="346" type="line" smooth="yes"/>
      <point x="414.3" y="346"/>
      <point x="501.652" y="390"/>
      <point x="527.797" y="513" type="curve" smooth="yes"/>
      <point x="551.815" y="626"/>
      <point x="490.719" y="682"/>
      <point x="392.719" y="682" type="curve" smooth="yes"/>
      <point x="207.719" y="682" type="line"/>
    </contour>
  </outline>
</glyph>
<glyph name="S" format="2">
  <advance width="565"/>
  <unicode hex="0053"/>
  <outline>
    <contour>
      <point x="376.052" y="716" type="curve" smooth="yes"/>
      <point x="436.052" y="716"/>
      <point x="491.438" y="699"/>
      <point x="538.124" y="674" type="curve"/>
      <point x="511.342" y="548" type="line"/>
      <point x="476.342" y="548" type="line"/>
      <point x="499.936" y="659" type="line"/>
      <point x="455.188" y="679"/>
      <point x="416.525" y="690"/>
      <point x="367.525" y="690" type="curve" smooth="yes"/>
      <point x="225.525" y="690"/>
      <point x="158.134" y="627"/>
      <point x="139.217" y="538" type="curve" smooth="yes"/>
      <point x="124.976" y="471"/>
      <point x="134.135" y="420"/>
      <point x="238.333" y="388" type="curve" smooth="yes"/>
      <point x="344.531" y="356" type="line" smooth="yes"/>
      <point x="427.005" y="330"/>
      <point x="483.527" y="276"/>
      <point x="460.996" y="170" type="curve" smooth="yes"/>
      <point x="437.827" y="61"/>
      <point x="339.948" y="-9"/>
      <point x="204.948" y="-9" type="curve" smooth="yes"/>
      <point x="98.9482" y="-9"/>
      <point x="50.624" y="13"/>
      <point x="-2.21094" y="42" type="curve"/>
      <point x="27.1211" y="180" type="line"/>
      <point x="59.1211" y="180" type="line"/>
      <point x="32.9766" y="57" type="line"/>
      <point x="82.8125" y="28"/>
      <point x="145.475" y="17"/>
      <point x="212.475" y="17" type="curve" smooth="yes"/>
      <point x="326.262" y="16"/>
      <point x="408.591" y="74"/>
      <point x="429.634" y="173" type="curve" smooth="yes"/>
      <point x="447.913" y="259"/>
      <point x="401.691" y="305"/>
      <point x="328.367" y="327" type="curve" smooth="yes"/>
      <point x="222.956" y="358" type="line" smooth="yes"/>
      <point x="115.759" y="390"/>
      <point x="90" y="457"/>
      <point x="107.004" y="537" type="curve" smooth="yes"/>
      <point x="129.11" y="641"/>
      <point x="210.052" y="716"/>
    </contour>
  </outline>
</glyph>
<glyph name="T" format="2">
  <advance width="534"/>
  <unicode hex="0054"/>
  <outline>
    <contour>
      <point x="115.245" y="708" type="line"/>
      <point x="569.245" y="708" type="line"/>
      <point x="542.463" y="582" type="line"/>
      <point x="516.463" y="582" type="line"/>
      <point x="537.719" y="682" type="line"/>
      <point x="355.719" y="682" type="line"/>
      <point x="216.281" y="26" type="line"/>
      <point x="290.281" y="26" type="line"/>
      <point x="284.755" y="0" type="line"/>
      <point x="104.755" y="0" type="line"/>
      <point x="110.281" y="26" type="line"/>
      <point x="184.281" y="26" type="line"/>
      <point x="323.719" y="682" type="line"/>
      <point x="135.719" y="682" type="line"/>
      <point x="114.463" y="582" type="line"/>
      <point x="88.4629" y="582" type="line"/>
    </contour>
  </outline>
</glyph>
<glyph name="U" format="2">
  <advance width="653"/>
  <unicode hex="0055"/>
  <anchor x="391.455" y="880" name="AccentCenter"/>
  <outline>
    <contour>
      <point x="116.096" y="708" type="line"/>
      <point x="296.096" y="708" type="line"/>
      <point x="290.568" y="682" type="line"/>
      <point x="216.568" y="682" type="line"/>
      <point x="120.28" y="229" type="line" smooth="yes"/>
      <point x="87.1221" y="73"/>
      <point x="157.432" y="18"/>
      <point x="259.432" y="18" type="curve" smooth="yes"/>
      <point x="360.432" y="18"/>
      <point x="454.122" y="73"/>
      <point x="487.28" y="229" type="curve" smooth="yes"/>
      <point x="583.568" y="682" type="line"/>
      <point x="509.568" y="682" type="line"/>
      <point x="515.096" y="708" type="line"/>
      <point x="689.096" y="708" type="line"/>
      <point x="683.568" y="682" type="line"/>
      <point x="609.568" y="682" type="line"/>
      <point x="513.28" y="229" type="line" smooth="yes"/>
      <point x="479.484" y="70"/>
      <point x="378.904" y="-8"/>
      <point x="249.904" y="-8" type="curve" smooth="yes"/>
      <point x="119.904" y="-8"/>
      <point x="54.0586" y="68"/>
      <point x="88.2803" y="229" type="curve" smooth="yes"/>
      <point x="184.568" y="682" type="line"/>
      <point x="110.568" y="682" type="line"/>
    </contour>
  </outline>
</glyph>
<glyph name="V" format="2">
  <advance width="612"/>
  <unicode hex="0056"/>
  <outline>
    <contour>
      <point x="79.2451" y="708" type="line"/>
      <point x="238.245" y="708" type="line"/>
      <point x="232.719" y="682" type="line"/>
      <point x="169.719" y="682" type="line"/>
      <point x="252.557" y="32" type="line"/>
      <point x="591.719" y="682" type="line"/>
      <point x="526.719" y="682" type="line"/>
      <point x="532.245" y="708" type="line"/>
      <point x="683.245" y="708" type="line"/>
      <point x="677.719" y="682" type="line"/>
      <point x="619.719" y="682" type="line"/>
      <point x="262.755" y="0" type="line"/>
      <point x="220.755" y="0" type="line"/>
      <point x="134.719" y="682" type="line"/>
      <point x="73.7188" y="682" type="line"/>
    </contour>
  </outline>
</glyph>
<glyph name="W" format="2">
  <advance width="870"/>
  <unicode hex="0057"/>
  <outline>
    <contour>
      <point x="95.2451" y="708" type="line"/>
      <point x="254.245" y="708" type="line"/>
      <point x="248.719" y="682" type="line"/>
      <point x="185.719" y="682" type="line"/>
      <point x="218.557" y="32" type="line"/>
      <point x="507.245" y="708" type="line"/>
      <point x="535.245" y="708" type="line"/>
      <point x="562.557" y="32" type="line"/>
      <point x="833.719" y="682" type="line"/>
      <point x="768.719" y="682" type="line"/>
      <point x="774.245" y="708" type="line"/>
      <point x="925.245" y="708" type="line"/>
      <point x="919.719" y="682" type="line"/>
      <point x="861.719" y="682" type="line"/>
      <point x="572.755" y="0" type="line"/>
      <point x="530.755" y="0" type="line"/>
      <point x="506.279" y="647" type="line"/>
      <point x="228.755" y="0" type="line"/>
      <point x="186.755" y="0" type="line"/>
      <point x="150.719" y="682" type="line"/>
      <point x="89.7188" y="682" type="line"/>
    </contour>
  </outline>
</glyph>
<glyph name="X" format="2">
  <advance width="582"/>
  <unicode hex="0058"/>
  <outline>
    <contour>
      <point x="95.2451" y="708" type="line"/>
      <point x="89.7188" y="682" type="line"/>
      <point x="144.804" y="682" type="line"/>
      <point x="270.787" y="353" type="line"/>
      <point x="7.29297" y="26" type="line"/>
      <point x="-49.7188" y="26" type="line"/>
      <point x="-55.2451" y="0" type="line"/>
      <point x="108.755" y="0" type="line"/>
      <point x="114.281" y="26" type="line"/>
      <point x="43.293" y="26" type="line"/>
      <point x="282.623" y="324" type="line"/>
      <point x="397.281" y="26" type="line"/>
      <point x="328.281" y="26" type="line"/>
      <point x="322.755" y="0" type="line"/>
      <point x="486.755" y="0" type="line"/>
      <point x="492.281" y="26" type="line"/>
      <point x="437.281" y="26" type="line"/>
      <point x="308.425" y="356" type="line"/>
      <point x="572.719" y="682" type="line"/>
      <point x="631.719" y="682" type="line"/>
      <point x="637.245" y="708" type="line"/>
      <point x="473.245" y="708" type="line"/>
      <point x="467.719" y="682" type="line"/>
      <point x="536.719" y="682" type="line"/>
      <point x="296.802" y="386" type="line"/>
      <point x="184.804" y="682" type="line"/>
      <point x="253.719" y="682" type="line"/>
      <point x="259.245" y="708" type="line"/>
    </contour>
  </outline>
</glyph>
<glyph name="Y" format="2">
  <advance width="564"/>
  <unicode hex="0059"/>
  <anchor x="394.604" y="880" name="AccentCenter"/>
  <outline>
    <contour>
      <point x="79.2451" y="708" type="line"/>
      <point x="243.245" y="708" type="line"/>
      <point x="237.719" y="682" type="line"/>
      <point x="168.823" y="682" type="line"/>
      <point x="281.3" y="346" type="line"/>
      <point x="534.719" y="682" type="line"/>
      <point x="465.719" y="682" type="line"/>
      <point x="471.245" y="708" type="line"/>
      <point x="635.245" y="708" type="line"/>
      <point x="629.719" y="682" type="line"/>
      <point x="570.749" y="682" type="line"/>
      <point x="288.285" y="313" type="line"/>
      <point x="227.281" y="26" type="line"/>
      <point x="301.281" y="26" type="line"/>
      <point x="295.755" y="0" type="line"/>
      <point x="115.755" y="0" type="line"/>
      <point x="121.281" y="26" type="line"/>
      <point x="195.281" y="26" type="line"/>
      <point x="256.285" y="313" type="line"/>
      <point x="128.811" y="682" type="line"/>
      <point x="73.7188" y="682" type="line"/>
    </contour>
  </outline>
</glyph>
<glyph name="Z" format="2">
  <advance width="530"/>
  <unicode hex="005A"/>
  <outline>
    <contour>
      <point x="119.245" y="708" type="line"/>
      <point x="565.245" y="708" type="line"/>
      <point x="559.719" y="682" type="line"/>
      <point x="8.70703" y="28" type="line"/>
      <point x="394.707" y="28" type="line"/>
      <point x="405.334" y="78" type="line"/>
      <point x="431.334" y="78" type="line"/>
      <point x="414.755" y="0" type="line"/>
      <point x="-35.2451" y="0" type="line"/>
      <point x="-29.293" y="28" type="line"/>
      <point x="520.719" y="682" type="line"/>
      <point x="139.719" y="682" type="line"/>
      <point x="129.091" y="632" type="line"/>
      <point x="103.091" y="632" type="line"/>
    </contour>
  </outline>
</glyph>
<glyph name="bracketleft" format="2">
  <advance width="309"/>
  <unicode hex="005B"/>
  <outline>
    <contour>
      <point x="157.844" y="819" type="line"/>
      <point x="338.844" y="819" type="line"/>
      <point x="333.317" y="793" type="line"/>
      <point x="184.317" y="793" type="line"/>
      <point x="7.68262" y="-38" type="line"/>
      <point x="156.683" y="-38" type="line"/>
      <point x="151.156" y="-64" type="line"/>
      <point x="-29.8438" y="-64" type="line"/>
    </contour>
  </outline>
</glyph>
<glyph name="bracketright" format="2">
  <advance width="309"/>
  <unicode hex="005D"/>
  <outline>
    <contour>
      <point x="157.844" y="819" type="line"/>
      <point x="338.844" y="819" type="line"/>
      <point x="151.156" y="-64" type="line"/>
      <point x="-29.8438" y="-64" type="line"/>
      <point x="-24.3174" y="-38" type="line"/>
      <point x="124.683" y="-38" type="line"/>
      <point x="300.893" y="791" type="line"/>
      <point x="151.893" y="791" type="line"/>
    </contour>
  </outline>
</glyph>
<glyph name="a" format="2">
  <advance width="468"/>
  <unicode hex="0061"/>
  <anchor x="357.762" y="687" name="AccentCenter"/>
  <anchor x="347.762" y="687" name="Ring"/>
  <outline>
    <contour>
      <point x="274" y="528" type="curve" smooth="yes"/>
      <point x="340" y="528"/>
      <point x="377" y="493"/>
      <point x="394" y="460" type="curve"/>
      <point x="409" y="529" type="line"/>
      <point x="444" y="521" type="line"/>
      <point x="339" y="30" type="line"/>
      <point x="425" y="21" type="line"/>
      <point x="423" y="0" type="line"/>
      <point x="348" y="0" type="line"/>
      <point x="319" y="2"/>
      <point x="304" y="17"/>
      <point x="304" y="44" type="curve"/>
      <point x="314" y="89" type="line"/>
      <point x="163" y="-8" type="line"/>
      <point x="61" y="16"/>
      <point x="26" y="77"/>
      <point x="26" y="180" type="curve" smooth="yes"/>
      <point x="26" y="399"/>
      <point x="131" y="528"/>
    </contour>
    <contour>
      <point x="273" y="502" type="curve" smooth="yes"/>
      <point x="142" y="502"/>
      <point x="58" y="371"/>
      <point x="58" y="180" type="curve" smooth="yes"/>
      <point x="58" y="84"/>
      <point x="96" y="32"/>
      <point x="163" y="20" type="curve"/>
      <point x="321" y="120" type="line"/>
      <point x="387" y="431" type="line"/>
      <point x="371" y="462"/>
      <point x="336" y="502"/>
    </contour>
  </outline>
</glyph>
<glyph name="b" format="2">
  <advance width="523"/>
  <unicode hex="0062"/>
  <guideline x="0" y="260" angle="0" name="ItalicCenter" identifier="fontra-guideline-0"/>
  <outline>
    <contour>
      <point x="128" y="708" type="line"/>
      <point x="232" y="708" type="line"/>
      <point x="182" y="470" type="line"/>
      <point x="203" y="497"/>
      <point x="238" y="528"/>
      <point x="314" y="528" type="curve" smooth="yes"/>
      <point x="413" y="528"/>
      <point x="475" y="441"/>
      <point x="475" y="335" type="curve" smooth="yes"/>
      <point x="475" y="113"/>
      <point x="345" y="-8"/>
      <point x="185" y="-8" type="curve" smooth="yes"/>
      <point x="104" y="-8"/>
      <point x="81" y="9"/>
      <point x="55" y="25" type="curve"/>
      <point x="195" y="682" type="line"/>
      <point x="123" y="682" type="line"/>
    </contour>
    <contour>
      <point x="307" y="502" type="curve" smooth="yes"/>
      <point x="236" y="502"/>
      <point x="195" y="467"/>
      <point x="175" y="439" type="curve"/>
      <point x="90" y="43" type="line"/>
      <point x="110" y="30"/>
      <point x="128" y="18"/>
      <point x="189" y="18" type="curve" smooth="yes"/>
      <point x="330" y="18"/>
      <point x="442" y="128"/>
      <point x="442" y="333" type="curve" smooth="yes"/>
      <point x="442" y="425"/>
      <point x="397" y="502"/>
    </contour>
  </outline>
</glyph>
<glyph name="c" format="2">
  <advance width="485"/>
  <unicode hex="0063"/>
  <guideline x="0" y="260" angle="0" name="ItalicCenter" identifier="fontra-guideline-0"/>
  <outline>
    <contour>
      <point x="302" y="528" type="curve" smooth="yes"/>
      <point x="363" y="528"/>
      <point x="400" y="516"/>
      <point x="445" y="480" type="curve"/>
      <point x="409" y="370" type="line"/>
      <point x="374" y="374" type="line"/>
      <point x="406" y="471" type="line"/>
      <point x="380" y="491"/>
      <point x="350" y="502"/>
      <point x="298" y="502" type="curve" smooth="yes"/>
      <point x="192" y="502"/>
      <point x="87" y="413"/>
      <point x="87" y="204" type="curve" smooth="yes"/>
      <point x="87" y="107"/>
      <point x="116" y="18"/>
      <point x="234" y="18" type="curve" smooth="yes"/>
      <point x="274" y="18"/>
      <point x="319" y="31"/>
      <point x="368" y="54" type="curve"/>
      <point x="372" y="27" type="line"/>
      <point x="307" y="-2"/>
      <point x="279" y="-8"/>
      <point x="227" y="-8" type="curve" smooth="yes"/>
      <point x="84" y="-8"/>
      <point x="55" y="107"/>
      <point x="55" y="204" type="curve" smooth="yes"/>
      <point x="55" y="422"/>
      <point x="168" y="528"/>
    </contour>
  </outline>
</glyph>
<glyph name="d" format="2">
  <advance width="520"/>
  <unicode hex="0064"/>
  <guideline x="0" y="260" angle="0" name="ItalicCenter" identifier="fontra-guideline-0"/>
  <outline>
    <contour>
      <point x="413" y="716" type="line"/>
      <point x="403" y="690" type="line"/>
      <point x="477" y="690" type="line"/>
      <point x="431" y="471" type="line"/>
      <point x="411" y="496"/>
      <point x="377" y="528"/>
      <point x="300" y="528" type="curve" smooth="yes"/>
      <point x="166" y="528"/>
      <point x="48" y="402"/>
      <point x="48" y="183" type="curve" smooth="yes"/>
      <point x="48" y="108"/>
      <point x="64" y="-8"/>
      <point x="201" y="-8" type="curve" smooth="yes"/>
      <point x="274" y="-8"/>
      <point x="315" y="30"/>
      <point x="349" y="75" type="curve"/>
      <point x="339" y="0" type="line"/>
      <point x="437" y="0" type="line"/>
      <point x="442" y="26" type="line"/>
      <point x="368" y="26" type="line"/>
      <point x="515" y="716" type="line"/>
    </contour>
    <contour>
      <point x="295" y="502" type="curve" smooth="yes"/>
      <point x="364" y="502"/>
      <point x="398" y="474"/>
      <point x="424" y="438" type="curve"/>
      <point x="360" y="138" type="line"/>
      <point x="338" y="93"/>
      <point x="284" y="18"/>
      <point x="204" y="18" type="curve" smooth="yes"/>
      <point x="92" y="18"/>
      <point x="80" y="120"/>
      <point x="80" y="181" type="curve" smooth="yes"/>
      <point x="80" y="376"/>
      <point x="173" y="502"/>
    </contour>
  </outline>
</glyph>
<glyph name="e" format="2">
  <advance width="476"/>
  <unicode hex="0065"/>
  <guideline x="0" y="260" angle="0" name="ItalicCenter" identifier="fontra-guideline-0"/>
  <anchor x="289" y="687" name="AccentCenter"/>
  <outline>
    <contour>
      <point x="279" y="528" type="curve" smooth="yes"/>
      <point x="368" y="528"/>
      <point x="436" y="469"/>
      <point x="436" y="342" type="curve" smooth="yes"/>
      <point x="436" y="323"/>
      <point x="435" y="311"/>
      <point x="433" y="304" type="curve"/>
      <point x="85" y="209" type="line"/>
      <point x="85" y="104"/>
      <point x="126" y="18"/>
      <point x="247" y="18" type="curve" smooth="yes"/>
      <point x="283" y="18"/>
      <point x="317" y="25"/>
      <point x="369" y="47" type="curve"/>
      <point x="364" y="16" type="line"/>
      <point x="318" y="1"/>
      <point x="285" y="-8"/>
      <point x="239" y="-8" type="curve" smooth="yes"/>
      <point x="102" y="-8"/>
      <point x="48" y="92"/>
      <point x="48" y="218" type="curve" smooth="yes"/>
      <point x="48" y="437"/>
      <point x="161" y="528"/>
    </contour>
    <contour>
      <point x="274" y="502" type="curve" smooth="yes"/>
      <point x="174" y="502"/>
      <point x="85" y="414"/>
      <point x="85" y="237" type="curve"/>
      <point x="404" y="323" type="line"/>
      <point x="404" y="325" type="line" smooth="yes"/>
      <point x="404" y="452"/>
      <point x="358" y="502"/>
    </contour>
  </outline>
</glyph>
<glyph name="f" format="2">
  <advance width="290"/>
  <unicode hex="0066"/>
  <outline>
    <contour>
      <point x="405" y="704" type="line"/>
      <point x="409" y="721" type="line"/>
      <point x="378" y="728"/>
      <point x="361" y="731"/>
      <point x="300" y="731" type="curve" smooth="yes"/>
      <point x="245" y="731"/>
      <point x="211" y="694"/>
      <point x="200" y="645" type="curve" smooth="yes"/>
      <point x="174" y="520" type="line"/>
      <point x="72" y="513" type="line"/>
      <point x="68" y="494" type="line"/>
      <point x="168" y="494" type="line"/>
      <point x="64" y="0" type="line"/>
      <point x="-50" y="-185" type="line"/>
      <point x="-19" y="-185" type="line"/>
      <point x="94" y="-6" type="line"/>
      <point x="200" y="494" type="line"/>
      <point x="321" y="494" type="line"/>
      <point x="327" y="520" type="line"/>
      <point x="206" y="520" type="line"/>
      <point x="244" y="697" type="line"/>
    </contour>
  </outline>
</glyph>
<glyph name="g" format="2">
  <advance width="525"/>
  <unicode hex="0067"/>
  <outline>
    <contour>
      <point x="297" y="528" type="curve" smooth="yes"/>
      <point x="363" y="528"/>
      <point x="394" y="502"/>
      <point x="413" y="471" type="curve"/>
      <point x="449" y="497" type="line"/>
      <point x="549" y="530" type="line"/>
      <point x="542" y="499" type="line"/>
      <point x="419" y="461" type="line"/>
      <point x="430" y="438"/>
      <point x="439" y="403"/>
      <point x="429" y="359" type="curve" smooth="yes"/>
      <point x="411" y="273"/>
      <point x="319" y="202"/>
      <point x="228" y="202" type="curve" smooth="yes"/>
      <point x="212" y="202"/>
      <point x="195" y="204"/>
      <point x="172" y="210" type="curve"/>
      <point x="132" y="202"/>
      <point x="76" y="177"/>
      <point x="68" y="143" type="curve" smooth="yes"/>
      <point x="62" y="112"/>
      <point x="81" y="96"/>
      <point x="130" y="90" type="curve" smooth="yes"/>
      <point x="330" y="64" type="line" smooth="yes"/>
      <point x="396" y="55"/>
      <point x="442" y="26"/>
      <point x="424" y="-56" type="curve" smooth="yes"/>
      <point x="410" y="-123"/>
      <point x="341" y="-192"/>
      <point x="173" y="-192" type="curve" smooth="yes"/>
      <point x="20" y="-192"/>
      <point x="-31" y="-130"/>
      <point x="-17" y="-24" type="curve"/>
      <point x="128" y="60" type="line"/>
      <point x="105" y="63" type="line" smooth="yes"/>
      <point x="50" y="70"/>
      <point x="25" y="102"/>
      <point x="33" y="140" type="curve" smooth="yes"/>
      <point x="41" y="177"/>
      <point x="75" y="204"/>
      <point x="143" y="222" type="curve"/>
      <point x="101" y="249"/>
      <point x="76" y="283"/>
      <point x="92" y="359" type="curve" smooth="yes"/>
      <point x="116" y="469"/>
      <point x="204" y="528"/>
    </contour>
    <contour>
      <point x="12" y="-33" type="line"/>
      <point x="8" y="-96"/>
      <point x="37" y="-166"/>
      <point x="185" y="-166" type="curve" smooth="yes"/>
      <point x="310" y="-166"/>
      <point x="378" y="-120"/>
      <point x="391" y="-55" type="curve" smooth="yes"/>
      <point x="404" y="6"/>
      <point x="377" y="29"/>
      <point x="309" y="38" type="curve" smooth="yes"/>
      <point x="158" y="57" type="line"/>
    </contour>
    <contour>
      <point x="292" y="502" type="curve" smooth="yes"/>
      <point x="214" y="502"/>
      <point x="145" y="456"/>
      <point x="124" y="359" type="curve" smooth="yes"/>
      <point x="104" y="265"/>
      <point x="152" y="228"/>
      <point x="234" y="228" type="curve" smooth="yes"/>
      <point x="313" y="228"/>
      <point x="382" y="285"/>
      <point x="397" y="359" type="curve" smooth="yes"/>
      <point x="416" y="445"/>
      <point x="375" y="502"/>
    </contour>
  </outline>
</glyph>
<glyph name="h" format="2">
  <advance width="528"/>
  <unicode hex="0068"/>
  <outline>
    <contour>
      <point x="126" y="689" type="line"/>
      <point x="224" y="716" type="line"/>
      <point x="152" y="381" type="line"/>
      <point x="203" y="487"/>
      <point x="266" y="528"/>
      <point x="341" y="528" type="curve" smooth="yes"/>
      <point x="423" y="528"/>
      <point x="465" y="484"/>
      <point x="464" y="400" type="curve" smooth="yes"/>
      <point x="464" y="379"/>
      <point x="461" y="355"/>
      <point x="456" y="329" type="curve" smooth="yes"/>
      <point x="391" y="26" type="line"/>
      <point x="455" y="26" type="line"/>
      <point x="450" y="0" type="line"/>
      <point x="354" y="0" type="line"/>
      <point x="426" y="334" type="line" smooth="yes"/>
      <point x="432" y="360"/>
      <point x="434" y="382"/>
      <point x="434" y="402" type="curve" smooth="yes"/>
      <point x="432" y="468"/>
      <point x="398" y="502"/>
      <point x="330" y="502" type="curve" smooth="yes"/>
      <point x="242" y="502"/>
      <point x="156" y="400"/>
      <point x="132" y="285" type="curve" smooth="yes"/>
      <point x="77" y="26" type="line"/>
      <point x="140" y="26" type="line"/>
      <point x="135" y="0" type="line"/>
      <point x="39" y="0" type="line"/>
      <point x="185" y="681" type="line"/>
      <point x="121" y="665" type="line"/>
    </contour>
  </outline>
</glyph>
<glyph name="i" format="2">
  <advance width="243"/>
  <unicode hex="0069"/>
  <outline>
    <contour>
      <point x="198.689" y="731" type="curve" smooth="yes"/>
      <point x="220.689" y="731"/>
      <point x="233.076" y="714"/>
      <point x="228.399" y="692" type="curve" smooth="yes"/>
      <point x="223.724" y="670"/>
      <point x="204.322" y="654"/>
      <point x="182.322" y="654" type="curve" smooth="yes"/>
      <point x="160.322" y="654"/>
      <point x="146.724" y="670"/>
      <point x="151.399" y="692" type="curve" smooth="yes"/>
      <point x="156.076" y="714"/>
      <point x="176.689" y="731"/>
    </contour>
    <component base="dotlessi" yxScale="4.383299778976113e-07" xOffset="-12"/>
  </outline>
</glyph>
<glyph name="j" format="2">
  <advance width="230"/>
  <unicode hex="006A"/>
  <outline>
    <contour>
      <point x="93.1387" y="520" type="line"/>
      <point x="199.139" y="520" type="line"/>
      <point x="74.3682" y="-67" type="line" smooth="yes"/>
      <point x="59.4893" y="-137"/>
      <point x="2.01172" y="-191"/>
      <point x="-85.9883" y="-191" type="curve" smooth="yes"/>
      <point x="-87.9883" y="-191" type="line"/>
      <point x="-82.0371" y="-163" type="line"/>
      <point x="-80.0371" y="-163" type="line" smooth="yes"/>
      <point x="-9.03711" y="-163"/>
      <point x="29.4023" y="-128"/>
      <point x="41.0928" y="-73" type="curve" smooth="yes"/>
      <point x="161.612" y="494" type="line"/>
      <point x="87.6123" y="494" type="line"/>
    </contour>
    <contour>
      <point x="224.988" y="731" type="curve" smooth="yes"/>
      <point x="244.988" y="731"/>
      <point x="261.013" y="717"/>
      <point x="255.699" y="692" type="curve" smooth="yes"/>
      <point x="249.96" y="665"/>
      <point x="228.409" y="653"/>
      <point x="208.409" y="653" type="curve" smooth="yes"/>
      <point x="188.409" y="653"/>
      <point x="173.173" y="666"/>
      <point x="178.699" y="692" type="curve" smooth="yes"/>
      <point x="184.013" y="717"/>
      <point x="204.988" y="731"/>
    </contour>
  </outline>
</glyph>
<glyph name="k" format="2">
  <advance width="509"/>
  <unicode hex="006B"/>
  <outline>
    <contour>
      <point x="115.245" y="708" type="line"/>
      <point x="220.245" y="708" type="line"/>
      <point x="126.72" y="268" type="line"/>
      <point x="403.758" y="494" type="line"/>
      <point x="343.758" y="494" type="line"/>
      <point x="349.284" y="520" type="line"/>
      <point x="492.284" y="520" type="line"/>
      <point x="486.758" y="494" type="line"/>
      <point x="442.758" y="494" type="line"/>
      <point x="163.72" y="268" type="line"/>
      <point x="348.281" y="26" type="line"/>
      <point x="409.281" y="26" type="line"/>
      <point x="403.755" y="0" type="line"/>
      <point x="313.755" y="0" type="line"/>
      <point x="124.744" y="254" type="line"/>
      <point x="123.744" y="254" type="line"/>
      <point x="75.2812" y="26" type="line"/>
      <point x="149.281" y="26" type="line"/>
      <point x="143.755" y="0" type="line"/>
      <point x="-35.2451" y="0" type="line"/>
      <point x="-29.7188" y="26" type="line"/>
      <point x="44.2812" y="26" type="line"/>
      <point x="183.719" y="682" type="line"/>
      <point x="109.719" y="682" type="line"/>
    </contour>
  </outline>
</glyph>
<glyph name="l" format="2">
  <advance width="235"/>
  <unicode hex="006C"/>
  <guideline x="0" y="260" angle="0" name="ItalicCenter" identifier="fontra-guideline-0"/>
  <outline>
    <contour>
      <point x="130" y="772" type="line"/>
      <point x="236" y="772" type="line"/>
      <point x="80" y="23" type="line"/>
      <point x="162" y="44" type="line"/>
      <point x="156" y="13" type="line"/>
      <point x="78" y="-8" type="line"/>
      <point x="63" y="-8"/>
      <point x="49" y="1"/>
      <point x="49" y="22" type="curve" smooth="yes"/>
      <point x="49" y="27"/>
      <point x="50" y="33"/>
      <point x="51" y="39" type="curve"/>
      <point x="200" y="746" type="line"/>
      <point x="125" y="746" type="line"/>
    </contour>
  </outline>
</glyph>
<glyph name="m" format="2">
  <advance width="806"/>
  <unicode hex="006D"/>
  <outline>
    <contour>
      <point x="92.92680358886719" y="513" type="line"/>
      <point x="192.11500549316406" y="528" type="line"/>
      <point x="136" y="269" type="line"/>
      <point x="172" y="375"/>
      <point x="234" y="528"/>
      <point x="351" y="528" type="curve" smooth="yes"/>
      <point x="419" y="528"/>
      <point x="456" y="491"/>
      <point x="456" y="405" type="curve" smooth="yes"/>
      <point x="456" y="389"/>
      <point x="452" y="352"/>
      <point x="447" y="334" type="curve"/>
      <point x="483" y="438"/>
      <point x="552" y="528"/>
      <point x="641" y="528" type="curve" smooth="yes"/>
      <point x="709" y="528"/>
      <point x="746" y="491"/>
      <point x="746" y="405" type="curve" smooth="yes"/>
      <point x="746" y="383"/>
      <point x="743" y="357"/>
      <point x="737" y="329" type="curve" smooth="yes"/>
      <point x="674" y="33" type="line"/>
      <point x="741" y="48" type="line"/>
      <point x="735" y="21" type="line"/>
      <point x="636" y="0" type="line"/>
      <point x="707" y="334" type="line" smooth="yes"/>
      <point x="712" y="360"/>
      <point x="715" y="383"/>
      <point x="715" y="404" type="curve" smooth="yes"/>
      <point x="715" y="474"/>
      <point x="687" y="502"/>
      <point x="640" y="502" type="curve" smooth="yes"/>
      <point x="556" y="502"/>
      <point x="475" y="389"/>
      <point x="430" y="248" type="curve"/>
      <point x="384" y="33" type="line"/>
      <point x="451" y="48" type="line"/>
      <point x="445" y="21" type="line"/>
      <point x="346" y="0" type="line"/>
      <point x="417" y="334" type="line" smooth="yes"/>
      <point x="422" y="360"/>
      <point x="425" y="383"/>
      <point x="425" y="404" type="curve" smooth="yes"/>
      <point x="425" y="474"/>
      <point x="397" y="502"/>
      <point x="350" y="502" type="curve" smooth="yes"/>
      <point x="228" y="502"/>
      <point x="137" y="261"/>
      <point x="118" y="175" type="curve" smooth="yes"/>
      <point x="80" y="0" type="line"/>
      <point x="48" y="0" type="line"/>
      <point x="154.16299438476562" y="500" type="line"/>
      <point x="88.03810119628906" y="490" type="line"/>
    </contour>
  </outline>
</glyph>
<glyph name="n" format="2">
  <advance width="523"/>
  <unicode hex="006E"/>
  <anchor x="364.312" y="687" name="AccentCenter"/>
  <outline>
    <contour>
      <point x="92.9268" y="513" type="line"/>
      <point x="192.115" y="528" type="line"/>
      <point x="136" y="269" type="line"/>
      <point x="176" y="373"/>
      <point x="241" y="528"/>
      <point x="358" y="528" type="curve" smooth="yes"/>
      <point x="426" y="528"/>
      <point x="463" y="491"/>
      <point x="463" y="405" type="curve" smooth="yes"/>
      <point x="463" y="383"/>
      <point x="460" y="357"/>
      <point x="454" y="329" type="curve" smooth="yes"/>
      <point x="391" y="33" type="line"/>
      <point x="458" y="48" type="line"/>
      <point x="452" y="21" type="line"/>
      <point x="353" y="0" type="line"/>
      <point x="424" y="334" type="line" smooth="yes"/>
      <point x="429" y="360"/>
      <point x="432" y="383"/>
      <point x="432" y="404" type="curve" smooth="yes"/>
      <point x="432" y="474"/>
      <point x="404" y="502"/>
      <point x="357" y="502" type="curve" smooth="yes"/>
      <point x="234" y="502"/>
      <point x="147" y="259"/>
      <point x="118" y="175" type="curve"/>
      <point x="80" y="0" type="line"/>
      <point x="48" y="0" type="line"/>
      <point x="154.163" y="500" type="line"/>
      <point x="88.0381" y="490" type="line"/>
    </contour>
  </outline>
</glyph>
<glyph name="o" format="2">
  <advance width="550"/>
  <unicode hex="006F"/>
  <anchor x="362.762" y="687" name="AccentCenter"/>
  <outline>
    <contour>
      <point x="328.438" y="502" type="curve" smooth="yes"/>
      <point x="213.438" y="502"/>
      <point x="125.545" y="399"/>
      <point x="95.7871" y="259" type="curve" smooth="yes"/>
      <point x="66.2422" y="120"/>
      <point x="107.562" y="18"/>
      <point x="223.562" y="18" type="curve" smooth="yes"/>
      <point x="340.562" y="18"/>
      <point x="424.242" y="120"/>
      <point x="453.787" y="259" type="curve" smooth="yes"/>
      <point x="483.333" y="398"/>
      <point x="443.438" y="502"/>
    </contour>
    <contour>
      <point x="333.965" y="528" type="curve" smooth="yes"/>
      <point x="461.965" y="528"/>
      <point x="521.497" y="427"/>
      <point x="485.787" y="259" type="curve" smooth="yes"/>
      <point x="451.991" y="100"/>
      <point x="343.035" y="-8"/>
      <point x="218.035" y="-8" type="curve" smooth="yes"/>
      <point x="93.0352" y="-8"/>
      <point x="29.1406" y="96"/>
      <point x="63.7871" y="259" type="curve" smooth="yes"/>
      <point x="99.2842" y="426"/>
      <point x="204.965" y="528"/>
    </contour>
  </outline>
</glyph>
<glyph name="p" format="2">
  <advance width="519"/>
  <unicode hex="0070"/>
  <guideline x="0" y="260" angle="0" name="ItalicCenter" identifier="fontra-guideline-0"/>
  <outline>
    <contour>
      <point x="78" y="520" type="line"/>
      <point x="176" y="520" type="line"/>
      <point x="165" y="439" type="line"/>
      <point x="189" y="480"/>
      <point x="231" y="528"/>
      <point x="321" y="528" type="curve" smooth="yes"/>
      <point x="444" y="528"/>
      <point x="471" y="421"/>
      <point x="471" y="345" type="curve" smooth="yes"/>
      <point x="471" y="118"/>
      <point x="332" y="-8"/>
      <point x="214" y="-8" type="curve" smooth="yes"/>
      <point x="127" y="-8"/>
      <point x="98" y="33"/>
      <point x="86" y="61" type="curve"/>
      <point x="38" y="-166" type="line"/>
      <point x="112" y="-166" type="line"/>
      <point x="106" y="-192" type="line"/>
      <point x="0" y="-192" type="line"/>
      <point x="146" y="494" type="line"/>
      <point x="72" y="494" type="line"/>
    </contour>
    <contour>
      <point x="154" y="382" type="curve"/>
      <point x="95" y="103" type="line"/>
      <point x="111" y="67"/>
      <point x="134" y="18"/>
      <point x="212" y="18" type="curve" smooth="yes"/>
      <point x="322" y="18"/>
      <point x="439" y="138"/>
      <point x="439" y="344" type="curve" smooth="yes"/>
      <point x="439" y="408"/>
      <point x="420" y="502"/>
      <point x="315" y="502" type="curve" smooth="yes"/>
      <point x="219" y="502"/>
      <point x="173" y="424"/>
    </contour>
  </outline>
</glyph>
<glyph name="q" format="2">
  <advance width="521"/>
  <unicode hex="0071"/>
  <guideline x="0" y="260" angle="0" name="ItalicCenter" identifier="fontra-guideline-0"/>
  <outline>
    <contour>
      <point x="291" y="528" type="curve" smooth="yes"/>
      <point x="366" y="528"/>
      <point x="407" y="497"/>
      <point x="436" y="465" type="curve"/>
      <point x="465" y="490"/>
      <point x="505" y="513"/>
      <point x="544" y="520" type="curve"/>
      <point x="538" y="492" type="line"/>
      <point x="456" y="454" type="line"/>
      <point x="324" y="-166" type="line"/>
      <point x="398" y="-166" type="line"/>
      <point x="392" y="-192" type="line"/>
      <point x="286" y="-192" type="line"/>
      <point x="339" y="56" type="line"/>
      <point x="296" y="18"/>
      <point x="272" y="-8"/>
      <point x="194" y="-8" type="curve" smooth="yes"/>
      <point x="101" y="-8"/>
      <point x="48" y="73"/>
      <point x="48" y="163" type="curve" smooth="yes"/>
      <point x="48" y="379"/>
      <point x="147" y="528"/>
    </contour>
    <contour>
      <point x="287" y="502" type="curve" smooth="yes"/>
      <point x="164" y="502"/>
      <point x="80" y="367"/>
      <point x="80" y="165" type="curve" smooth="yes"/>
      <point x="80" y="87"/>
      <point x="120" y="18"/>
      <point x="208" y="18" type="curve" smooth="yes"/>
      <point x="275" y="18"/>
      <point x="310" y="54"/>
      <point x="347" y="93" type="curve"/>
      <point x="420" y="440" type="line"/>
      <point x="396" y="468"/>
      <point x="355" y="502"/>
    </contour>
  </outline>
</glyph>
<glyph name="r" format="2">
  <advance width="353"/>
  <unicode hex="0072"/>
  <outline>
    <contour>
      <point x="184.115" y="528" type="line"/>
      <point x="152" y="378" type="line"/>
      <point x="175" y="437"/>
      <point x="290" y="528"/>
      <point x="363" y="528" type="curve" smooth="yes"/>
      <point x="371" y="528"/>
      <point x="374" y="528"/>
      <point x="381" y="527" type="curve"/>
      <point x="374.589" y="502" type="line"/>
      <point x="365" y="502" type="line"/>
      <point x="278" y="502"/>
      <point x="185" y="406"/>
      <point x="143" y="334" type="curve"/>
      <point x="72" y="0" type="line"/>
      <point x="40" y="0" type="line"/>
      <point x="144.888" y="494" type="line"/>
      <point x="67.9121" y="480" type="line"/>
      <point x="74.076" y="509" type="line"/>
    </contour>
  </outline>
</glyph>
<glyph name="s" format="2">
  <advance width="418.0121"/>
  <unicode hex="0073"/>
  <guideline x="0" y="260" angle="0" name="ItalicCenter" identifier="fontra-guideline-0"/>
  <outline>
    <contour>
      <point x="262.0121" y="528" type="curve" smooth="yes"/>
      <point x="317.0121" y="528"/>
      <point x="366.0121" y="511"/>
      <point x="403.0121" y="477" type="curve"/>
      <point x="358.0121" y="372" type="line"/>
      <point x="332.0121" y="376" type="line"/>
      <point x="369.0121" y="470" type="line"/>
      <point x="336.0121" y="492"/>
      <point x="308.0121" y="502"/>
      <point x="256.01210000000003" y="502" type="curve" smooth="yes"/>
      <point x="177.0121" y="502"/>
      <point x="112.0121" y="459"/>
      <point x="105.0121" y="380" type="curve"/>
      <point x="353.0121" y="170" type="line" smooth="yes"/>
      <point x="361.0121" y="163"/>
      <point x="371.0121" y="155"/>
      <point x="371.0121" y="133" type="curve" smooth="yes"/>
      <point x="371.0121" y="80"/>
      <point x="309.0121" y="-8"/>
      <point x="183.0121" y="-8" type="curve" smooth="yes"/>
      <point x="98.0121" y="-8"/>
      <point x="54.447599999999994" y="8"/>
      <point x="12.1" y="44" type="curve"/>
      <point x="33.780699999999996" y="146" type="line"/>
      <point x="65.7807" y="146" type="line"/>
      <point x="47.2885" y="59" type="line"/>
      <point x="87.12440000000001" y="30"/>
      <point x="126.0121" y="18"/>
      <point x="187.0121" y="18" type="curve" smooth="yes"/>
      <point x="277.0121" y="18"/>
      <point x="333.0121" y="60"/>
      <point x="343.0121" y="139" type="curve"/>
      <point x="110.0121" y="334" type="line" smooth="yes"/>
      <point x="96.0121" y="345"/>
      <point x="77.0121" y="361"/>
      <point x="77.0121" y="381" type="curve" smooth="yes"/>
      <point x="77.0121" y="466"/>
      <point x="156.0121" y="528"/>
    </contour>
  </outline>
</glyph>
<glyph name="t" format="2">
  <advance width="314"/>
  <unicode hex="0074"/>
  <guideline x="0" y="260" angle="0" name="ItalicCenter" identifier="fontra-guideline-0"/>
  <outline>
    <contour>
      <point x="204" y="671" type="line"/>
      <point x="240" y="687" type="line"/>
      <point x="204" y="520" type="line"/>
      <point x="335" y="520" type="line"/>
      <point x="329" y="492" type="line"/>
      <point x="198" y="492" type="line"/>
      <point x="113" y="92" type="line" smooth="yes"/>
      <point x="103" y="45"/>
      <point x="129" y="19"/>
      <point x="176" y="19" type="curve"/>
      <point x="185" y="19"/>
      <point x="201" y="20"/>
      <point x="220" y="23" type="curve" smooth="yes"/>
      <point x="244" y="28" type="line"/>
      <point x="243" y="4" type="line"/>
      <point x="203" y="-6"/>
      <point x="183" y="-8"/>
      <point x="162" y="-8" type="curve" smooth="yes"/>
      <point x="103" y="-8"/>
      <point x="68" y="28"/>
      <point x="81" y="92" type="curve" smooth="yes"/>
      <point x="166" y="492" type="line"/>
      <point x="52" y="492" type="line"/>
      <point x="57" y="512" type="line"/>
      <point x="172" y="520" type="line"/>
    </contour>
  </outline>
</glyph>
<glyph name="u" format="2">
  <advance width="536"/>
  <unicode hex="0075"/>
  <anchor x="348.612" y="687" name="AccentCenter"/>
  <outline>
    <contour>
      <point x="76.1152" y="520" type="line"/>
      <point x="171.115" y="520" type="line"/>
      <point x="100.121" y="186" type="line" smooth="yes"/>
      <point x="76.5273" y="75"/>
      <point x="108" y="18"/>
      <point x="175" y="18" type="curve" smooth="yes"/>
      <point x="298" y="18"/>
      <point x="401" y="272"/>
      <point x="424" y="380" type="curve" smooth="yes"/>
      <point x="454" y="520" type="line"/>
      <point x="486" y="520" type="line"/>
      <point x="381" y="26" type="line"/>
      <point x="445" y="26" type="line"/>
      <point x="441" y="7" type="line"/>
      <point x="351" y="-8" type="line"/>
      <point x="395" y="245" type="line"/>
      <point x="372" y="172"/>
      <point x="301" y="-8"/>
      <point x="163" y="-8" type="curve" smooth="yes"/>
      <point x="82" y="-8"/>
      <point x="42.5518" y="61"/>
      <point x="70.1836" y="191" type="curve" smooth="yes"/>
      <point x="134.589" y="494" type="line"/>
      <point x="70.5889" y="494" type="line"/>
    </contour>
  </outline>
</glyph>
<glyph name="v" format="2">
  <advance width="532"/>
  <unicode hex="0076"/>
  <guideline x="0" y="260" angle="0" name="ItalicCenter" identifier="fontra-guideline-0"/>
  <outline>
    <contour>
      <point x="49" y="520" type="line"/>
      <point x="208" y="520" type="line"/>
      <point x="203" y="494" type="line"/>
      <point x="140" y="494" type="line"/>
      <point x="183" y="32" type="line"/>
      <point x="442" y="494" type="line"/>
      <point x="377" y="494" type="line"/>
      <point x="382" y="520" type="line"/>
      <point x="533" y="520" type="line"/>
      <point x="528" y="494" type="line"/>
      <point x="470" y="494" type="line"/>
      <point x="193" y="0" type="line"/>
      <point x="151" y="0" type="line"/>
      <point x="105" y="494" type="line"/>
      <point x="44" y="494" type="line"/>
    </contour>
  </outline>
</glyph>
<glyph name="w" format="2">
  <advance width="767"/>
  <unicode hex="0077"/>
  <outline>
    <contour>
      <point x="65" y="520" type="line"/>
      <point x="125" y="520" type="line"/>
      <point x="141" y="520"/>
      <point x="155" y="510"/>
      <point x="156" y="494" type="curve"/>
      <point x="172" y="42" type="line"/>
      <point x="404" y="520" type="line"/>
      <point x="439" y="520" type="line"/>
      <point x="439" y="34" type="line"/>
      <point x="667" y="494" type="line"/>
      <point x="604" y="494" type="line"/>
      <point x="609" y="520" type="line"/>
      <point x="760" y="520" type="line"/>
      <point x="755" y="494" type="line"/>
      <point x="703" y="494" type="line"/>
      <point x="451" y="0" type="line"/>
      <point x="405" y="11" type="line"/>
      <point x="405" y="464" type="line"/>
      <point x="184" y="0" type="line"/>
      <point x="140" y="11" type="line"/>
      <point x="121" y="494" type="line"/>
      <point x="60" y="494" type="line"/>
    </contour>
  </outline>
</glyph>
<glyph name="x" format="2">
  <advance width="489"/>
  <unicode hex="0078"/>
  <outline>
    <contour>
      <point x="67" y="520" type="line"/>
      <point x="118" y="520" type="line" smooth="yes"/>
      <point x="132" y="520"/>
      <point x="152" y="513"/>
      <point x="160" y="494" type="curve" smooth="yes"/>
      <point x="261" y="257" type="line"/>
      <point x="443" y="528" type="line"/>
      <point x="477" y="519" type="line"/>
      <point x="274" y="226" type="line"/>
      <point x="360" y="26" type="line"/>
      <point x="418" y="26" type="line"/>
      <point x="413" y="0" type="line"/>
      <point x="365" y="0" type="line" smooth="yes"/>
      <point x="344" y="0"/>
      <point x="325" y="14"/>
      <point x="320" y="26" type="curve" smooth="yes"/>
      <point x="225" y="253" type="line"/>
      <point x="44" y="-8" type="line"/>
      <point x="12" y="2" type="line"/>
      <point x="211" y="280" type="line"/>
      <point x="120" y="494" type="line"/>
      <point x="62" y="494" type="line"/>
    </contour>
  </outline>
</glyph>
<glyph name="y" format="2">
  <advance width="493"/>
  <unicode hex="0079"/>
  <guideline x="0" y="260" angle="0" name="ItalicCenter" identifier="fontra-guideline-0"/>
  <anchor x="404.367" y="687" name="AccentCenter"/>
  <outline>
    <contour>
      <point x="-8" y="-88" type="line"/>
      <point x="-26" y="-190" type="line"/>
      <point x="-21" y="-191"/>
      <point x="-13" y="-191"/>
      <point x="-8" y="-191" type="curve"/>
      <point x="253" y="-191"/>
      <point x="472" y="267"/>
      <point x="497" y="520" type="curve"/>
      <point x="463" y="520" type="line"/>
      <point x="431" y="297"/>
      <point x="325" y="83"/>
      <point x="234" y="-19" type="curve"/>
      <point x="165" y="520" type="line"/>
      <point x="86" y="520" type="line"/>
      <point x="81" y="494" type="line"/>
      <point x="139" y="494" type="line"/>
      <point x="205" y="-51" type="line"/>
      <point x="152" y="-114"/>
      <point x="64" y="-164"/>
      <point x="10" y="-164" type="curve"/>
      <point x="20" y="-88" type="line"/>
    </contour>
  </outline>
</glyph>
<glyph name="z" format="2">
  <advance width="433"/>
  <unicode hex="007A"/>
  <outline>
    <contour>
      <point x="99.2646" y="520" type="line"/>
      <point x="448.265" y="520" type="line"/>
      <point x="442.738" y="494" type="line"/>
      <point x="28.6865" y="28" type="line"/>
      <point x="343.687" y="28" type="line"/>
      <point x="337.735" y="0" type="line"/>
      <point x="-15.2646" y="0" type="line"/>
      <point x="-9.31348" y="28" type="line"/>
      <point x="403.738" y="494" type="line"/>
      <point x="93.7383" y="494" type="line"/>
    </contour>
  </outline>
</glyph>
<glyph name="oslash" format="2">
  <advance width="550"/>
  <unicode hex="00F8"/>
  <outline>
    <contour>
      <point x="443" y="520" type="line"/>
      <point x="481" y="520" type="line"/>
      <point x="97" y="0" type="line"/>
      <point x="64" y="0" type="line"/>
    </contour>
    <component base="o"/>
  </outline>
</glyph>
<glyph name="dotlessi" format="2">
  <advance width="251"/>
  <unicode hex="0131"/>
  <anchor x="149" y="687" name="AccentCenter"/>
  <outline>
    <contour>
      <point x="92" y="520" type="line"/>
      <point x="198" y="520" type="line"/>
      <point x="101" y="23" type="line"/>
      <point x="183" y="44" type="line"/>
      <point x="177" y="13" type="line"/>
      <point x="99" y="-8" type="line"/>
      <point x="84" y="-8"/>
      <point x="70" y="1"/>
      <point x="70" y="22" type="curve" smooth="yes"/>
      <point x="70" y="27"/>
      <point x="71" y="33"/>
      <point x="72" y="39" type="curve"/>
      <point x="162" y="494" type="line"/>
      <point x="87" y="494" type="line"/>
    </contour>
  </outline>
</glyph>
